<svg width="414" height="504" viewBox="0 0 414 504" fill="none" xmlns="http://www.w3.org/2000/svg">
<path d="M-2 -1V381.053C-2 381.053 30.2351 449.788 113.112 441.811C195.989 433.835 213.177 390.876 313.243 470.049C313.243 470.049 348.543 503.185 413 501.967V-1H-2Z" fill="#E0ECDE"/>
<path d="M400.149 504C347.355 504 316.072 479.662 315.738 479.381C253.185 430.238 214.838 439.61 161.778 452.6C147.705 456.045 133.138 459.609 116.529 462.6C35.3493 477.232 -4.59944 434.67 -5 434.23L-4.01196 433.335C-3.62476 433.762 35.8967 475.777 116.275 461.291C132.858 458.301 147.385 454.75 161.444 451.305C214.878 438.235 253.478 428.796 316.553 478.34C316.94 478.647 354.899 508.152 417.853 501.757L417.987 503.079C411.805 503.72 405.85 504 400.149 504Z" fill="#E0ECDE"/>
</svg>
